<svg width="173" height="166" viewBox="0 0 173 166" fill="none" xmlns="http://www.w3.org/2000/svg">
<path d="M132.83 163.5C120.545 163.5 105.611 161.783 92.9427 155.282C92.3759 154.982 92.1426 154.282 92.4426 153.715C92.7426 153.149 93.4427 152.915 94.0094 153.215C120.079 166.6 156.299 159.116 156.666 159.049C163.283 157.683 167.133 155.632 167.533 153.249C168.067 149.998 162.616 146.048 160.466 144.798C147.798 138.247 126.596 140.031 126.396 140.047C109.044 140.047 81.6749 150.999 81.4082 151.115C70.8571 155.532 55.5889 158.083 54.9555 158.199C33.2367 163.266 14.2014 159.666 14.0181 159.633C13.9681 159.633 13.9347 159.616 13.9014 159.599C7.41741 157.566 3.66703 154.882 2.75027 151.615C1.90019 148.565 3.88372 146.281 3.96706 146.198C12.5179 136.28 37.0871 137.997 38.1205 138.081C47.9882 138.964 76.5243 139.947 76.8077 139.947C84.4085 139.947 89.759 138.247 92.7093 134.88C95.4929 131.697 95.0429 128.163 95.0262 128.013C95.0262 127.963 95.0262 127.896 95.0262 127.846V101.444C95.0262 79.1246 115.995 66.8567 116.212 66.7234C116.245 66.7067 116.278 66.69 116.328 66.6734C129.146 61.0728 149.482 50.0384 149.482 44.3045C149.482 44.2044 149.482 44.1211 149.515 44.0211C149.515 43.9544 149.898 42.2042 148.332 40.054C146.365 37.3538 141.248 33.8701 127.996 32.5699C127.779 32.5699 98.8433 31.7699 90.4591 7.78412C82.0916 31.7699 53.1387 32.5699 52.8386 32.5699C39.5706 33.8701 34.4701 37.4038 32.5366 40.1374C31.0364 42.2709 31.4031 44.0044 31.4031 44.0211C31.4198 44.1211 31.4365 44.2044 31.4365 44.3045C31.4365 50.0384 51.7719 61.0728 64.5898 66.6734C75.8576 72.1739 82.1749 71.0238 82.2416 71.0238C82.3083 71.0238 82.3916 71.0071 82.4749 71.0071C89.209 71.0071 95.3929 62.6396 95.4596 62.5563C103.81 52.8553 107.144 45.1879 105.194 40.3374C103.21 35.4202 96.3597 34.7368 96.293 34.7202C96.2097 34.7202 96.143 34.7035 96.0596 34.6702C94.2761 34.1201 91.0425 34.4868 89.859 34.6868C84.5752 36.3537 81.5082 38.8872 80.7414 42.2042C79.0246 49.6383 88.8423 59.0226 88.9423 59.1226C89.409 59.556 89.4256 60.3061 88.9923 60.7561C88.5589 61.2228 87.8255 61.2395 87.3588 60.8061C86.9087 60.3894 76.4743 50.4051 78.4912 41.6875C79.458 37.4871 83.075 34.3868 89.259 32.4533C89.309 32.4533 89.359 32.4199 89.409 32.4199C89.5923 32.3866 93.9094 31.6365 96.6597 32.4199C97.7265 32.5366 105.011 33.5867 107.377 39.4706C109.711 45.2712 106.327 53.5221 97.3098 64.0064C97.0931 64.3231 90.4591 73.2574 82.6083 73.3407C81.5915 73.5074 74.9242 74.3075 63.6564 68.8069C60.1727 67.2901 29.4196 53.5887 29.1529 44.4545C29.0362 43.8211 28.8029 41.4708 30.6697 38.8206C33.8867 34.2701 41.3208 31.3865 52.7386 30.2864C53.1387 30.2864 83.2917 29.403 89.3423 3.45035C89.459 2.91697 89.9257 2.55026 90.4757 2.55026C91.0258 2.55026 91.5259 2.91697 91.6425 3.45035C97.6931 29.403 127.846 30.2697 128.163 30.2864C139.681 31.4032 147.115 34.2868 150.332 38.8372C152.199 41.4875 151.965 43.8377 151.849 44.4711C151.582 53.5554 121.179 67.1568 117.362 68.8236C116.262 69.4903 97.3931 81.0581 97.3931 101.494V127.83C97.4765 128.53 97.7765 132.68 94.5595 136.414C91.1758 140.331 85.2085 142.314 76.841 142.314C76.5077 142.314 47.9381 141.331 38.0038 140.431C37.7705 140.431 13.5847 138.714 5.78391 147.765C5.7339 147.832 4.53378 149.248 5.06717 151.065C5.55055 152.749 7.60076 155.199 14.6015 157.399C15.7849 157.616 33.9034 160.783 54.5888 155.949C54.8222 155.916 70.3071 153.315 80.6248 148.998C81.7749 148.532 108.711 137.764 126.396 137.764C127.196 137.697 148.382 135.897 161.7 142.798C162.683 143.364 170.817 148.265 169.95 153.649C169.367 157.199 165.233 159.716 157.266 161.366C157.066 161.4 146.681 163.55 132.963 163.55L132.83 163.5Z" fill="#231815" stroke="#231815" stroke-width="3" stroke-miterlimit="10"/>
</svg>
